<mxfile host="app.diagrams.net" modified="2024-04-20T19:37:02.562Z" agent="Mozilla/5.0 (Windows NT 10.0; Win64; x64) AppleWebKit/537.36 (KHTML, like Gecko) Chrome/123.0.0.0 Safari/537.36" etag="xg3l37mbMIY_1d1_WNVT" version="24.2.7" type="github">
  <diagram name="Page-1" id="WndDy0Rk9gtcwsY4eIUO">
    <mxGraphModel dx="704" dy="626" grid="1" gridSize="10" guides="1" tooltips="1" connect="1" arrows="1" fold="1" page="1" pageScale="1" pageWidth="827" pageHeight="1169" math="0" shadow="0">
      <root>
        <mxCell id="0" />
        <mxCell id="1" parent="0" />
        <mxCell id="xn9oXXonzTNrzWrAQW-Q-2" value="" style="sketch=0;outlineConnect=0;fontColor=#232F3E;gradientColor=none;fillColor=#232F3D;strokeColor=none;dashed=0;verticalLabelPosition=bottom;verticalAlign=top;align=center;html=1;fontSize=12;fontStyle=0;aspect=fixed;pointerEvents=1;shape=mxgraph.aws4.users;" vertex="1" parent="1">
          <mxGeometry x="71" y="336" width="38" height="38" as="geometry" />
        </mxCell>
        <mxCell id="xn9oXXonzTNrzWrAQW-Q-3" value="" style="sketch=0;outlineConnect=0;fontColor=#232F3E;gradientColor=none;fillColor=#232F3D;strokeColor=none;dashed=0;verticalLabelPosition=bottom;verticalAlign=top;align=center;html=1;fontSize=12;fontStyle=0;aspect=fixed;pointerEvents=1;shape=mxgraph.aws4.user;" vertex="1" parent="1">
          <mxGeometry x="71" y="240" width="40" height="40" as="geometry" />
        </mxCell>
        <mxCell id="xn9oXXonzTNrzWrAQW-Q-4" value="" style="sketch=0;pointerEvents=1;shadow=0;dashed=0;html=1;strokeColor=none;fillColor=#005F4B;labelPosition=center;verticalLabelPosition=bottom;verticalAlign=top;align=center;outlineConnect=0;shape=mxgraph.veeam2.laptop;" vertex="1" parent="1">
          <mxGeometry x="69" y="410" width="44" height="28" as="geometry" />
        </mxCell>
        <mxCell id="xn9oXXonzTNrzWrAQW-Q-5" value="" style="image;sketch=0;aspect=fixed;html=1;points=[];align=center;fontSize=12;image=img/lib/mscae/Load_Balancer_feature.svg;rotation=90;" vertex="1" parent="1">
          <mxGeometry x="170" y="330" width="50" height="50" as="geometry" />
        </mxCell>
      </root>
    </mxGraphModel>
  </diagram>
</mxfile>
